<svg xmlns="http://www.w3.org/2000/svg" width="20.36" height="20.36" viewBox="0 0 20.36 20.36">
  <path id="sparkle-bold-svgrepo-com" d="M27.086,14.248l-4.263-1.57-1.57-4.263a1.691,1.691,0,0,0-3.173,0l-1.571,4.263-4.263,1.57a1.691,1.691,0,0,0,0,3.173l4.263,1.571,1.57,4.263a1.691,1.691,0,0,0,3.173,0l1.57-4.263,4.263-1.57a1.691,1.691,0,0,0,0-3.173Zm-5.11,2.893a1.688,1.688,0,0,0-1,1h0l-1.307,3.548-1.307-3.548a1.688,1.688,0,0,0-1-1l-3.548-1.307,3.548-1.307a1.688,1.688,0,0,0,1-1l1.307-3.548,1.307,3.548a1.688,1.688,0,0,0,1,1l3.548,1.307Zm.058-10.1a1.014,1.014,0,0,1,1.014-1.014h1.014V5.014a1.014,1.014,0,1,1,2.029,0V6.029H27.1a1.014,1.014,0,0,1,0,2.029H26.091V9.072a1.014,1.014,0,0,1-2.029,0V8.057H23.047a1.014,1.014,0,0,1-1.014-1.014ZM31.5,11.1a1.014,1.014,0,0,1-1.014,1.014h-.338v.338a1.014,1.014,0,0,1-2.029,0v-.338h-.338a1.014,1.014,0,0,1,0-2.029h.338V9.748a1.014,1.014,0,0,1,2.029,0v.338h.338A1.014,1.014,0,0,1,31.5,11.1Z" transform="translate(-11.141 -4)"/>
</svg>
