<svg xmlns="http://www.w3.org/2000/svg" width="24.116" height="24.121" viewBox="0 0 24.116 24.121">
  <path id="image-plus-svgrepo-com" d="M16.77,19.1l-2.137-2.119A6.166,6.166,0,0,0,12.6,15.334a2.487,2.487,0,0,0-1.53,0,6.167,6.167,0,0,0-2.038,1.643L4.052,21.988M16.77,19.1l.425-.421A6.209,6.209,0,0,1,19.274,17a2.488,2.488,0,0,1,1.552.018c.571.195,1.061.7,2.04,1.72l1.04,1.056m-7.135-.7L21.691,24.1m0,0c-.435.046-.994.046-1.767.046H7.981a6.181,6.181,0,0,1-2.623-.271,2.488,2.488,0,0,1-1.087-1.087,2.325,2.325,0,0,1-.219-.8M21.691,24.1a2.4,2.4,0,0,0,.856-.225,2.488,2.488,0,0,0,1.087-1.087,6.181,6.181,0,0,0,.271-2.623V15.441m-11.2-11.2H7.981a6.182,6.182,0,0,0-2.623.271A2.488,2.488,0,0,0,4.271,5.6,6.182,6.182,0,0,0,4,8.225V20.169a17.281,17.281,0,0,0,.052,1.819M21.418,10.465V6.732m0,0V3m0,3.732H25.15m-3.732,0H17.685" transform="translate(-2.284 -1.75)" fill="none" stroke="#000" stroke-linecap="round" stroke-linejoin="round" stroke-width="2.5"/>
</svg>
