<svg xmlns="http://www.w3.org/2000/svg" width="24.707" height="27.5" viewBox="0 0 24.707 27.5">
  <g id="point-on-map-svgrepo-com" transform="translate(-1.75 0.25)">
    <path id="Pfad_3" data-name="Pfad 3" d="M21.506,8l1.17.39c1.221.407,1.832.611,2.181,1.1s.349,1.128.349,2.416v6.991c0,1.593,0,2.389-.419,2.9a1.853,1.853,0,0,1-.51.432c-.574.329-1.359.2-2.93-.063a12.99,12.99,0,0,0-3.093-.323,6.168,6.168,0,0,0-.8.121,13.121,13.121,0,0,0-2.88,1.228,13.3,13.3,0,0,1-3.76,1.53,6.163,6.163,0,0,1-.9.064A13.16,13.16,0,0,1,6,23.806l-.473-.158c-1.221-.407-1.832-.611-2.181-1.1S3,21.425,3,20.137V14.055c0-2.047,0-3.07.6-3.62a1.851,1.851,0,0,1,.346-.25c.713-.4,1.683-.074,3.625.573" transform="translate(0 1.219)" fill="none" stroke="#000" stroke-width="2.5"/>
    <path id="Pfad_4" data-name="Pfad 4" d="M6,9.033A7.225,7.225,0,0,1,13.4,2a7.225,7.225,0,0,1,7.4,7.033c0,3.854-3.18,10.8-6.866,12.409-.859.375-.214.375-1.073,0C9.18,19.834,6,12.886,6,9.033Z" transform="translate(0.701 -1)" fill="none" stroke="#000" stroke-width="2.5"/>
    <circle id="Ellipse_8" data-name="Ellipse 8" cx="2.451" cy="2.451" r="2.451" transform="translate(11.986 6.719)" fill="none" stroke="#000" stroke-width="2.5"/>
  </g>
</svg>
