<svg xmlns="http://www.w3.org/2000/svg" width="23.25" height="23.25" viewBox="0 0 23.25 23.25">
  <path id="add-category-svgrepo-com" d="M3.75,4.807,4.807,3.75h8.455l1.057,1.057v8.455l-1.057,1.057H4.807L3.75,13.261ZM5.864,5.864V12.2H12.2V5.864ZM17.489,3.75,16.432,4.807v8.455l1.057,1.057h8.455L27,13.261V4.807L25.943,3.75ZM18.545,12.2V5.864h6.341V12.2ZM22.773,27H20.659V22.773H16.432V20.659h4.227V16.432h2.114v4.227H27v2.114H22.773ZM4.807,16.432,3.75,17.489v8.455L4.807,27h8.455l1.057-1.057V17.489l-1.057-1.057Zm1.057,8.455V18.545H12.2v6.341Z" transform="translate(-3.75 -3.75)" fill-rule="evenodd"/>
</svg>
